HIERARCHY
ROOT hips
{
  OFFSET -0.00735851563513279 12.18665635585785 0.12248523347079754
  CHANNELS 6 Xposition Yposition Zposition Yrotation Xrotation Zrotation
  JOINT spine
  {
    OFFSET 1.0244548320770264e-7 0.5955291986465454 0
    CHANNELS 3 Yrotation Xrotation Zrotation
    JOINT chest
    {
      OFFSET 0 1.2719063864449713 0
      CHANNELS 3 Yrotation Xrotation Zrotation
      JOINT upperChest
      {
        OFFSET 0 1.490802666915459 0
        CHANNELS 3 Yrotation Xrotation Zrotation
        JOINT neck
        {
          OFFSET 0 1.3131953345263365 0
          CHANNELS 3 Yrotation Xrotation Zrotation
          JOINT head
          {
            OFFSET 0 0.8653679716847534 0
            CHANNELS 3 Yrotation Xrotation Zrotation
            JOINT leftEye
            {
              OFFSET 0.20629723300226033 0.6721053123474121 0.3036841657012701
              CHANNELS 3 Yrotation Xrotation Zrotation
              End Site
              {
                OFFSET 0.20629723300226033 0.6721053123474121 0.3036841657012701
              }
            }
            JOINT rightEye
            {
              OFFSET -0.20629652100615203 0.6721066236495972 0.30368443205952644
              CHANNELS 3 Yrotation Xrotation Zrotation
              End Site
              {
                OFFSET -0.20629652100615203 0.6721066236495972 0.30368443205952644
              }
            }
          }
        }
        JOINT leftShoulder
        {
          OFFSET 0.24624172446783632 0.959903359413147 0
          CHANNELS 3 Yrotation Xrotation Zrotation
          JOINT leftUpperArm
          {
            OFFSET 0.9650355761446514 0 0
            CHANNELS 3 Yrotation Xrotation Zrotation
            JOINT leftLowerArm
            {
              OFFSET 2.4419134471639827 0 0
              CHANNELS 3 Yrotation Xrotation Zrotation
              JOINT leftHand
              {
                OFFSET 2.3874557408809456 0 0
                CHANNELS 3 Yrotation Xrotation Zrotation
                JOINT leftIndexProximal
                {
                  OFFSET 0.7029628753662109 0.06118142604827881 0.23586585000157356
                  CHANNELS 3 Yrotation Xrotation Zrotation
                  JOINT leftIndexIntermediate
                  {
                    OFFSET 0.36102771759033203 -0.001475214958190918 0.056637559086084366
                    CHANNELS 3 Yrotation Xrotation Zrotation
                    JOINT leftIndexDistal
                    {
                      OFFSET 0.22344785928726196 -0.007408857345581055 0.02531452476978302
                      CHANNELS 3 Yrotation Xrotation Zrotation
                      End Site
                      {
                        OFFSET 0.22344785928726196 -0.007408857345581055 0.02531452476978302
                      }
                    }
                  }
                }
                JOINT leftLittleProximal
                {
                  OFFSET 0.6958752870559692 0.034375786781311035 -0.29472956992685795
                  CHANNELS 3 Yrotation Xrotation Zrotation
                  JOINT leftLittleIntermediate
                  {
                    OFFSET 0.34538060426712036 -0.0030041933059692383 0.00024324655532836914
                    CHANNELS 3 Yrotation Xrotation Zrotation
                    JOINT leftLittleDistal
                    {
                      OFFSET 0.19865047931671143 0.00746917724609375 -0.010377676226198673
                      CHANNELS 3 Yrotation Xrotation Zrotation
                      End Site
                      {
                        OFFSET 0.19865047931671143 0.00746917724609375 -0.010377676226198673
                      }
                    }
                  }
                }
                JOINT leftMiddleProximal
                {
                  OFFSET 0.7272291779518127 0.09209799766540527 0.05257739871740341
                  CHANNELS 3 Yrotation Xrotation Zrotation
                  JOINT leftMiddleIntermediate
                  {
                    OFFSET 0.40590834617614746 -0.014838695526123047 0.026817932724952698
                    CHANNELS 3 Yrotation Xrotation Zrotation
                    JOINT leftMiddleDistal
                    {
                      OFFSET 0.2495119571685791 -0.026458144187927246 0.010310646146535873
                      CHANNELS 3 Yrotation Xrotation Zrotation
                      End Site
                      {
                        OFFSET 0.2495119571685791 -0.026458144187927246 0.010310646146535873
                      }
                    }
                  }
                }
                JOINT leftRingProximal
                {
                  OFFSET 0.7334893345832825 0.09136629104614258 -0.1205735495314002
                  CHANNELS 3 Yrotation Xrotation Zrotation
                  JOINT leftRingIntermediate
                  {
                    OFFSET 0.3775520920753479 -0.005917906761169434 0.001896639820188284
                    CHANNELS 3 Yrotation Xrotation Zrotation
                    JOINT leftRingDistal
                    {
                      OFFSET 0.2177620530128479 0.007703900337219238 0.0027355607599020004
                      CHANNELS 3 Yrotation Xrotation Zrotation
                      End Site
                      {
                        OFFSET 0.2177620530128479 0.007703900337219238 0.0027355607599020004
                      }
                    }
                  }
                }
                JOINT leftThumbProximal
                {
                  OFFSET 0.02235114574432373 -0.07603192329406738 0.1950724683701992
                  CHANNELS 3 Yrotation Xrotation Zrotation
                  JOINT leftThumbIntermediate
                  {
                    OFFSET 0.3551589846611023 -0.02970755100250244 0.36741212010383606
                    CHANNELS 3 Yrotation Xrotation Zrotation
                    JOINT leftThumbDistal
                    {
                      OFFSET 0.23456048965454102 -0.016631245613098145 0.2093813568353653
                      CHANNELS 3 Yrotation Xrotation Zrotation
                      End Site
                      {
                        OFFSET 0.23456048965454102 -0.016631245613098145 0.2093813568353653
                      }
                    }
                  }
                }
              }
            }
          }
        }
        JOINT rightShoulder
        {
          OFFSET -0.24624088185373694 0.9600239992141724 0
          CHANNELS 3 Yrotation Xrotation Zrotation
          JOINT rightUpperArm
          {
            OFFSET -0.9650300767908009 0 0
            CHANNELS 3 Yrotation Xrotation Zrotation
            JOINT rightLowerArm
            {
              OFFSET -2.4420125187833426 0 0
              CHANNELS 3 Yrotation Xrotation Zrotation
              JOINT rightHand
              {
                OFFSET -2.3874255620910265 0 0
                CHANNELS 3 Yrotation Xrotation Zrotation
                JOINT rightIndexProximal
                {
                  OFFSET -0.7029609084129333 0.06117355823516846 0.23587234504520893
                  CHANNELS 3 Yrotation Xrotation Zrotation
                  JOINT rightIndexIntermediate
                  {
                    OFFSET -0.3610270619392395 -0.0014804601669311523 0.05664427950978279
                    CHANNELS 3 Yrotation Xrotation Zrotation
                    JOINT rightIndexDistal
                    {
                      OFFSET -0.2234485149383545 -0.0074127912521362305 0.025317884981632233
                      CHANNELS 3 Yrotation Xrotation Zrotation
                      End Site
                      {
                        OFFSET -0.2234485149383545 -0.0074127912521362305 0.025317884981632233
                      }
                    }
                  }
                }
                JOINT rightLittleProximal
                {
                  OFFSET -0.6958779096603394 0.034366607666015625 -0.29472311586141586
                  CHANNELS 3 Yrotation Xrotation Zrotation
                  JOINT rightLittleIntermediate
                  {
                    OFFSET -0.3453786373138428 -0.003008127212524414 0.00025422871112823486
                    CHANNELS 3 Yrotation Xrotation Zrotation
                    JOINT rightLittleDistal
                    {
                      OFFSET -0.19865179061889648 0.00746917724609375 -0.010371447540819645
                      CHANNELS 3 Yrotation Xrotation Zrotation
                      End Site
                      {
                        OFFSET -0.19865179061889648 0.00746917724609375 -0.010371447540819645
                      }
                    }
                  }
                }
                JOINT rightMiddleProximal
                {
                  OFFSET -0.7272304892539978 0.09209012985229492 0.05258418060839176
                  CHANNELS 3 Yrotation Xrotation Zrotation
                  JOINT rightMiddleIntermediate
                  {
                    OFFSET -0.4059063792228699 -0.014843940734863281 0.026821313425898552
                    CHANNELS 3 Yrotation Xrotation Zrotation
                    JOINT rightMiddleDistal
                    {
                      OFFSET -0.24951326847076416 -0.026460766792297363 0.010313207283616066
                      CHANNELS 3 Yrotation Xrotation Zrotation
                      End Site
                      {
                        OFFSET -0.24951326847076416 -0.026460766792297363 0.010313207283616066
                      }
                    }
                  }
                }
                JOINT rightRingProximal
                {
                  OFFSET -0.7334906458854675 0.09135580062866211 -0.12056719791144133
                  CHANNELS 3 Yrotation Xrotation Zrotation
                  JOINT rightRingIntermediate
                  {
                    OFFSET -0.37755340337753296 -0.005923151969909668 0.0019026175141334534
                    CHANNELS 3 Yrotation Xrotation Zrotation
                    JOINT rightRingDistal
                    {
                      OFFSET -0.21775943040847778 0.007701277732849121 0.0027383523993194103
                      CHANNELS 3 Yrotation Xrotation Zrotation
                      End Site
                      {
                        OFFSET -0.21775943040847778 0.007701277732849121 0.0027383523993194103
                      }
                    }
                  }
                }
                JOINT rightThumbProximal
                {
                  OFFSET -0.022347867488861084 -0.07603061199188232 0.19507363624870777
                  CHANNELS 3 Yrotation Xrotation Zrotation
                  JOINT rightThumbIntermediate
                  {
                    OFFSET -0.3550455570220947 -0.029461026191711426 0.36754218488931656
                    CHANNELS 3 Yrotation Xrotation Zrotation
                    JOINT rightThumbDistal
                    {
                      OFFSET -0.23451131582260132 -0.016489624977111816 0.20944765955209732
                      CHANNELS 3 Yrotation Xrotation Zrotation
                      End Site
                      {
                        OFFSET -0.23451131582260132 -0.016489624977111816 0.20944765955209732
                      }
                    }
                  }
                }
              }
            }
          }
        }
      }
    }
  }
  JOINT leftUpperLeg
  {
    OFFSET 0.8483456987887621 -0.42556869983673096 0
    CHANNELS 3 Yrotation Xrotation Zrotation
    JOINT leftLowerLeg
    {
      OFFSET 0 -4.6702112872869534 0
      CHANNELS 3 Yrotation Xrotation Zrotation
      JOINT leftFoot
      {
        OFFSET -0.13096565008163452 -5.202569782733917 -0.2985280640423298
        CHANNELS 3 Yrotation Xrotation Zrotation
        JOINT leftToes
        {
          OFFSET 0.01423943042755127 -0.7568342834711075 1.213271364569664
          CHANNELS 3 Yrotation Xrotation Zrotation
          End Site
          {
            OFFSET 0.01423943042755127 -0.7568342834711075 1.213271364569664
          }
        }
      }
    }
  }
  JOINT rightUpperLeg
  {
    OFFSET -0.8483468051999807 -0.42556607723236084 0
    CHANNELS 3 Yrotation Xrotation Zrotation
    JOINT rightLowerLeg
    {
      OFFSET 0 -4.670219469177788 0
      CHANNELS 3 Yrotation Xrotation Zrotation
      JOINT rightFoot
      {
        OFFSET 0.13097601756453514 -5.202573716640472 -0.29853164963424206
        CHANNELS 3 Yrotation Xrotation Zrotation
        JOINT rightToes
        {
          OFFSET -0.014232628047466278 -0.7568355947732925 1.213272675871849
          CHANNELS 3 Yrotation Xrotation Zrotation
          End Site
          {
            OFFSET -0.014232628047466278 -0.7568355947732925 1.213272675871849
          }
        }
      }
    }
  }
}
MOTION
Frames: 4
Frame Time: 0.03333333333333333
-0.8820729734035782 0.11946255514793003 0.07652525151947126 18.72355826391664 4.758872434535206 -2.857288133665129 16.817057729312165 -4.355377686024372 5.115265083884045 6.782415219742982 -15.49324187121794 -9.574161352583461 0 0 0 -16.11434863703006 20.11760959456568 -9.80913226759226 -21.655741820838553 0.642010609053575 17.399264961632024 0 0 0 0 0 0 -8.805302883527949 2.6003110075752334 -13.245124917500815 27.903822801207802 20.228388043328454 -58.28282840717162 -73.77944364270476 20.635939500587522 29.479022519648712 1.9020039418355965 -14.282868052394 4.332104290612198 -3.6362923013974475 -2.244307238773714 -19.1331992307828 -7.100467301778522 3.6208598726743304 1.8225833510877834 0 0 0 37.98132903795241 3.8571197109621314 -18.213860060837895 -3.9815054993060692 -0.31200055448698594 -2.714025371509236 0 0 0 2.929467282294818 -1.2317410530999424 -10.132729622092112 -1.2464576280603077 0.3777279920650976 3.9817349636119856 0 0 0 18.72395458401292 0.4630544605552466 -17.775593849694907 -4.013708396721781 0.9952396653076988 -3.126586100320959 0 0 0 18.2690869785071 2.1086426759862387 -5.5655315414763 3.7170591655395477 8.635662614087984 -20.580556916942477 0 0 0 8.805302883527949 2.6003110075752334 13.245124917500815 17.894146174746236 -59.78679740945558 43.85637780426277 30.87121618470106 3.45296452633884 -12.170701931915572 8.908805217357097 30.34294187393535 12.631215422645093 3.635273235640843 -2.2440197234261947 19.13241602264739 7.10074700779512 3.620750798807948 -1.822804381112586 0 0 0 -37.98306068627806 3.857696460990191 18.21308707412888 3.9815144424260245 -0.31200164840068895 2.714676042683495 0 0 0 -2.929954418445625 -1.2316699600172374 10.13199307278958 1.2463844327030156 0.3777063270880474 -3.9815534479925643 0 0 0 -18.724814804065176 0.46333589488999716 17.77479459089185 4.013885012324447 0.9952023070750878 3.126698833958267 0 0 0 -18.28773932428485 2.122714774290576 5.592006425941941 -3.7121664153589 8.636710981961548 20.57778314378226 0 0 0 -31.330057791286954 -11.486710395493821 6.228022984074811 -0.05930035297442959 6.8906258274307675 -0.9333596030288316 20.52314940750601 -3.8413281219046196 0.3616835394619614 0 0 0 22.499354452673362 -1.4578384461195768 5.452573820932197 0.07310160470037948 -10.600372479451337 0.9982753672632538 -36.17949980098355 -16.816544710103898 -4.171232934980935 0 0 0
-0.9340458353324366 0.11561433966483703 0.1709227521282015 21.207358911403976 4.321392751060947 -2.799443215039811 16.93016602272011 -4.991753758815792 4.970838866264079 6.698525318509521 -14.91408874125984 -9.221746472319152 0 0 0 -17.045622955446667 20.3884027029052 -10.66493176831681 -22.119842821814384 3.78597022517783 18.45805288857104 0 0 0 0 0 0 -8.805302883527949 2.6003110075752334 -13.245124917500815 31.05352272751845 19.38552863555589 -57.63242032140327 -69.7661878943168 18.50783183924855 28.404284756535255 1.8330165993014185 -13.58528536860119 4.127620499940057 -3.6362923013974475 -2.244307238773714 -19.1331992307828 -7.100467301778522 3.6208598726743304 1.8225833510877834 0 0 0 37.98132903795241 3.8571197109621314 -18.213860060837895 -3.9815054993060692 -0.31200055448698594 -2.714025371509236 0 0 0 2.929467282294818 -1.2317410530999424 -10.132729622092112 -1.2464576280603077 0.3777279920650976 3.9817349636119856 0 0 0 18.72395458401292 0.4630544605552466 -17.775593849694907 -4.013708396721781 0.9952396653076988 -3.126586100320959 0 0 0 18.2690869785071 2.1086426759862387 -5.5655315414763 3.7170591655395477 8.635662614087984 -20.580556916942477 0 0 0 8.805302883527949 2.6003110075752334 13.245124917500815 3.194920635388906 -60.43997865220721 55.63095726197461 30.14223246189345 3.292918647433629 -11.798229237398239 10.78816122209067 34.00663188583559 14.89313584257959 3.635273235640843 -2.2440197234261947 19.13241602264739 7.10074700779512 3.620750798807948 -1.822804381112586 0 0 0 -37.98306068627806 3.857696460990191 18.21308707412888 3.9815144424260245 -0.31200164840068895 2.714676042683495 0 0 0 -2.929954418445625 -1.2316699600172374 10.13199307278958 1.2463844327030156 0.3777063270880474 -3.9815534479925643 0 0 0 -18.724814804065176 0.46333589488999716 17.77479459089185 4.013885012324447 0.9952023070750878 3.126698833958267 0 0 0 -18.28773932428485 2.122714774290576 5.592006425941941 -3.7121664153589 8.636710981961548 20.57778314378226 0 0 0 -31.74924201035828 -11.145164772853416 6.4708482773652225 -0.03648552586537591 6.924025396177976 -0.923132653955564 19.330983674402145 -3.7587929275071086 0.41573324578513554 0 0 0 21.944230234404504 -0.8989466582066244 6.530393772753461 0.10078809723759656 -10.572514366006951 1.0095225433208461 -37.56859795068824 -18.311446946769507 -4.349746731028488 0 0 0
-0.9808287717490312 0.09712224378635574 0.24461995267184272 22.70675827840448 3.8296560796936805 -2.9404720552764476 16.863944722785316 -5.38862517084975 5.009089774325262 6.549699968425879 -14.417519116207728 -8.776198676374943 0 0 0 -17.31402585563161 20.56347382122435 -10.7732836932968 -22.275844519067178 5.579555607510153 18.10890231770433 0 0 0 0 0 0 -8.805302883527949 2.6003110075752334 -13.245124917500815 33.4102976767326 17.617992053748736 -56.52396846983661 -63.47298492887059 15.32478675966056 26.43701989038069 1.2723565468341729 -8.616713909802987 2.6574894760612775 -3.6362923013974475 -2.244307238773714 -19.1331992307828 -7.100467301778522 3.6208598726743304 1.8225833510877834 0 0 0 37.98132903795241 3.8571197109621314 -18.213860060837895 -3.9815054993060692 -0.31200055448698594 -2.714025371509236 0 0 0 2.929467282294818 -1.2317410530999424 -10.132729622092112 -1.2464576280603077 0.3777279920650976 3.9817349636119856 0 0 0 18.72395458401292 0.4630544605552466 -17.775593849694907 -4.013708396721781 0.9952396653076988 -3.126586100320959 0 0 0 18.2690869785071 2.1086426759862387 -5.5655315414763 3.7170591655395477 8.635662614087984 -20.580556916942477 0 0 0 8.805302883527949 2.6003110075752334 13.245124917500815 -10.42077222697753 -59.51305267238559 67.03397326905346 29.942678066379823 3.2500392766769153 -11.695993203650866 12.288490293720411 36.575745972323666 16.658245594960718 3.635273235640843 -2.2440197234261947 19.13241602264739 7.10074700779512 3.620750798807948 -1.822804381112586 0 0 0 -37.98306068627806 3.857696460990191 18.21308707412888 3.9815144424260245 -0.31200164840068895 2.714676042683495 0 0 0 -2.929954418445625 -1.2316699600172374 10.13199307278958 1.2463844327030156 0.3777063270880474 -3.9815534479925643 0 0 0 -18.724814804065176 0.4633359482525949 17.77479459089185 4.013885012324447 0.9952023070750878 3.126698833958267 0 0 0 -18.28773932428485 2.122714774290576 5.592006425941941 -3.7121664153589 8.636710981961548 20.57778314378226 0 0 0 -31.936432352903417 -10.674887212698996 6.642702707494674 -0.026434549315563452 7.065124293845123 -0.9179327998779723 19.07390191960238 -4.161124386042593 0.44266700237426965 0 0 0 20.71722885263126 -0.44843835380541375 7.423192916727731 0.11359065086882301 -10.334572891422182 1.0150231516249046 -37.809352123240274 -18.37380211898627 -4.444662523926008 0 0 0
-1.0305701852366873 0.08135489108549998 0.28693740951107805 23.536915770127727 3.816384945839369 -3.1528763036442364 16.621797046488695 -5.902398262498049 4.983508314284748 6.40256251341755 -14.128769250261355 -8.454544715297411 0 0 0 -17.50633120308892 20.955372840967318 -11.001921082505623 -22.212281459931212 6.196048627124813 18.467043364134607 0 0 0 0 0 0 -8.805302883527949 2.6003110075752334 -13.245124917500815 36.18380796392551 15.050239144096178 -55.41819929172714 -57.39541726588343 12.475502298629483 24.242556430680647 0.249626380824691 -1.495536748856356 0.47513070619572617 -3.6362923013974475 -2.244307238773714 -19.1331992307828 -7.100467301778522 3.6208598726743304 1.8225833510877834 0 0 0 37.98132903795241 3.8571197109621314 -18.213860060837895 -3.9815054993060692 -0.31200055448698594 -2.714025371509236 0 0 0 2.929467282294818 -1.2317410530999424 -10.132729622092112 -1.2464576280603077 0.3777279920650976 3.9817349636119856 0 0 0 18.72395458401292 0.4630544605552466 -17.775593849694907 -4.013708396721781 0.9952396653076988 -3.126586100320959 0 0 0 18.2690869785071 2.1086426759862387 -5.5655315414763 3.7170591655395477 8.635662614087984 -20.580556916942477 0 0 0 8.805302883527949 2.6003110075752334 13.245124917500815 -16.45301828943395 -56.882494966655365 71.98078373057544 29.91606169928469 3.244346137989368 -11.682385964851044 13.379857157915643 38.27652784468807 17.92388194384228 3.635273235640843 -2.2440197234261947 19.13241602264739 7.10074700779512 3.620750798807948 -1.822804381112586 0 0 0 -37.98306068627806 3.857696460990191 18.21308707412888 3.9815144424260245 -0.31200164840068895 2.714676042683495 0 0 0 -2.929954418445625 -1.2316699600172374 10.13199307278958 1.2463844327030156 0.3777063270880474 -3.9815534479925643 0 0 0 -18.724814804065176 0.46333589488999716 17.77479459089185 4.013885012324447 0.9952023070750878 3.126698833958267 0 0 0 -18.28773932428485 2.122714774290576 5.592006425941941 -3.7121664153589 8.636710981961548 20.57778314378226 0 0 0 -32.10273164205535 -10.444496204448868 7.356003837624899 -0.01914787167006743 7.0715224335448275 -0.9139798988815744 18.312766342537405 -4.497088811833216 0.45453525328577904 0 0 0 20.067555537995062 -0.5856663700788087 8.091416701572598 0.12214544248060794 -10.23262968329105 1.0215971869392029 -37.950720936807784 -18.589940864136715 -4.499394497548615 0 0 0
